<svg width="32" height="32" viewBox="0 0 32 32" fill="none" xmlns="http://www.w3.org/2000/svg">
<path fill-rule="evenodd" clip-rule="evenodd" d="M15.6667 5.33317C15.6667 4.4127 16.4129 3.6665 17.3333 3.6665H26.6667C27.5871 3.6665 28.3333 4.4127 28.3333 5.33317V14.6665C28.3333 15.587 27.5871 16.3332 26.6667 16.3332H21.3333C20.781 16.3332 20.3333 16.7809 20.3333 17.3332C20.3333 17.8855 20.781 18.3332 21.3333 18.3332H26.6667C28.6917 18.3332 30.3333 16.6915 30.3333 14.6665V5.33317C30.3333 3.30813 28.6917 1.6665 26.6667 1.6665H17.3333C15.3083 1.6665 13.6667 3.30813 13.6667 5.33317V11.9998C13.6667 12.5521 14.1144 12.9998 14.6667 12.9998C15.2189 12.9998 15.6667 12.5521 15.6667 11.9998V5.33317ZM9.37377 3.9594C8.98325 3.56887 8.35008 3.56887 7.95956 3.9594C7.56903 4.34992 7.56903 4.98309 7.95956 5.37361L8.25245 5.6665H6.66666C4.64162 5.6665 3 7.30813 3 9.33317V10.6665C3 11.2188 3.44771 11.6665 4 11.6665C4.55228 11.6665 5 11.2188 5 10.6665V9.33317C5 8.4127 5.74619 7.6665 6.66666 7.6665H8.25245L7.95956 7.9594C7.56903 8.34992 7.56903 8.98309 7.95956 9.37361C8.35008 9.76414 8.98325 9.76414 9.37377 9.37361L11.3738 7.37361C11.4696 7.27773 11.542 7.16723 11.5908 7.04929C11.6397 6.93138 11.6667 6.80209 11.6667 6.6665C11.6667 6.53091 11.6397 6.40163 11.5908 6.28372C11.542 6.16578 11.4696 6.05527 11.3738 5.9594L9.37377 3.9594ZM28 20.3332C28.5523 20.3332 29 20.7809 29 21.3332V22.6665C29 24.6915 27.3584 26.3332 25.3333 26.3332H23.7475L24.0404 26.6261C24.431 27.0166 24.431 27.6498 24.0404 28.0403C23.6499 28.4308 23.0168 28.4308 22.6262 28.0403L20.6262 26.0403C20.5303 25.9444 20.458 25.8339 20.4092 25.716C20.3603 25.598 20.3333 25.4688 20.3333 25.3332C20.3333 25.3159 20.3338 25.2988 20.3346 25.2817C20.3406 25.1649 20.3665 25.0533 20.4092 24.9504C20.458 24.8324 20.5303 24.7219 20.6262 24.6261L22.6262 22.6261C23.0168 22.2355 23.6499 22.2355 24.0404 22.6261C24.431 23.0166 24.431 23.6498 24.0404 24.0403L23.7475 24.3332H25.3333C26.2538 24.3332 27 23.587 27 22.6665V21.3332C27 20.7809 27.4477 20.3332 28 20.3332ZM5.66666 14.9998C3.45753 14.9998 1.66666 16.7907 1.66666 18.9998V20.6665V24.9998C1.66666 27.209 3.45753 28.9998 5.66666 28.9998H14.3333C16.5425 28.9998 18.3333 27.209 18.3333 24.9998V20.6665V18.9998C18.3333 16.7907 16.5425 14.9998 14.3333 14.9998H5.66666ZM3.66666 24.9998V21.6665H16.3333V24.9998C16.3333 26.1044 15.4379 26.9998 14.3333 26.9998H5.66666C4.56209 26.9998 3.66666 26.1044 3.66666 24.9998ZM3.66666 19.6665H16.3333V18.9998C16.3333 17.8953 15.4379 16.9998 14.3333 16.9998H5.66666C4.56209 16.9998 3.66666 17.8953 3.66666 18.9998V19.6665ZM17.6667 7.99984C17.6667 7.44755 18.1144 6.99984 18.6667 6.99984H25.3333C25.8856 6.99984 26.3333 7.44755 26.3333 7.99984C26.3333 8.55212 25.8856 8.99984 25.3333 8.99984H18.6667C18.1144 8.99984 17.6667 8.55212 17.6667 7.99984ZM22.6667 10.9998C22.1144 10.9998 21.6667 11.4476 21.6667 11.9998C21.6667 12.5521 22.1144 12.9998 22.6667 12.9998H25.3333C25.8856 12.9998 26.3333 12.5521 26.3333 11.9998C26.3333 11.4476 25.8856 10.9998 25.3333 10.9998H22.6667Z" fill="#343844"/>
</svg>
