<svg width="32" height="32" viewBox="0 0 32 32" fill="none" xmlns="http://www.w3.org/2000/svg">
<path fill-rule="evenodd" clip-rule="evenodd" d="M15.6667 5.33317C15.6667 4.4127 16.4129 3.6665 17.3334 3.6665H26.6667C27.5872 3.6665 28.3334 4.4127 28.3334 5.33317V14.6665C28.3334 15.587 27.5872 16.3332 26.6667 16.3332H21.3334C20.7811 16.3332 20.3334 16.7809 20.3334 17.3332C20.3334 17.8855 20.7811 18.3332 21.3334 18.3332H26.6667C28.6918 18.3332 30.3334 16.6915 30.3334 14.6665V5.33317C30.3334 3.30813 28.6918 1.6665 26.6667 1.6665H17.3334C15.3084 1.6665 13.6667 3.30813 13.6667 5.33317V11.9998C13.6667 12.5521 14.1145 12.9998 14.6667 12.9998C15.219 12.9998 15.6667 12.5521 15.6667 11.9998V5.33317ZM9.37386 3.9594C8.98333 3.56887 8.35017 3.56887 7.95964 3.9594C7.56912 4.34992 7.56912 4.98309 7.95964 5.37361L8.25253 5.6665H6.66675C4.6417 5.6665 3.00008 7.30813 3.00008 9.33317V10.6665C3.00008 11.2188 3.4478 11.6665 4.00008 11.6665C4.55237 11.6665 5.00008 11.2188 5.00008 10.6665V9.33317C5.00008 8.4127 5.74627 7.6665 6.66675 7.6665H8.25253L7.95964 7.9594C7.56912 8.34992 7.56912 8.98309 7.95964 9.37361C8.35017 9.76414 8.98333 9.76414 9.37386 9.37361L11.3739 7.37361C11.4697 7.27773 11.5421 7.16723 11.5909 7.04929C11.6398 6.93138 11.6667 6.80209 11.6667 6.6665C11.6667 6.53091 11.6398 6.40163 11.5909 6.28372C11.5421 6.16578 11.4697 6.05527 11.3739 5.9594L9.37386 3.9594ZM28.0001 20.3332C28.5524 20.3332 29.0001 20.7809 29.0001 21.3332V22.6665C29.0001 24.6915 27.3585 26.3332 25.3334 26.3332H23.7476L24.0405 26.6261C24.431 27.0166 24.431 27.6498 24.0405 28.0403C23.65 28.4308 23.0168 28.4308 22.6263 28.0403L20.6263 26.0403C20.5304 25.9444 20.4581 25.8339 20.4093 25.716C20.3604 25.598 20.3334 25.4688 20.3334 25.3332C20.3334 25.3159 20.3339 25.2988 20.3347 25.2817C20.3406 25.1649 20.3666 25.0533 20.4093 24.9504C20.4581 24.8324 20.5304 24.7219 20.6263 24.6261L22.6263 22.6261C23.0168 22.2355 23.65 22.2355 24.0405 22.6261C24.431 23.0166 24.431 23.6498 24.0405 24.0403L23.7476 24.3332H25.3334C26.2539 24.3332 27.0001 23.587 27.0001 22.6665V21.3332C27.0001 20.7809 27.4478 20.3332 28.0001 20.3332ZM5.66675 14.9998C3.45761 14.9998 1.66675 16.7907 1.66675 18.9998V20.6665V24.9998C1.66675 27.209 3.45761 28.9998 5.66675 28.9998H14.3334C16.5426 28.9998 18.3334 27.209 18.3334 24.9998V20.6665V18.9998C18.3334 16.7907 16.5426 14.9998 14.3334 14.9998H5.66675ZM3.66675 24.9998V21.6665H16.3334V24.9998C16.3334 26.1044 15.438 26.9998 14.3334 26.9998H5.66675C4.56218 26.9998 3.66675 26.1044 3.66675 24.9998ZM3.66675 19.6665H16.3334V18.9998C16.3334 17.8953 15.438 16.9998 14.3334 16.9998H5.66675C4.56218 16.9998 3.66675 17.8953 3.66675 18.9998V19.6665ZM17.6667 7.99984C17.6667 7.44755 18.1145 6.99984 18.6667 6.99984H25.3334C25.8857 6.99984 26.3334 7.44755 26.3334 7.99984C26.3334 8.55212 25.8857 8.99984 25.3334 8.99984H18.6667C18.1145 8.99984 17.6667 8.55212 17.6667 7.99984ZM22.6667 10.9998C22.1145 10.9998 21.6667 11.4476 21.6667 11.9998C21.6667 12.5521 22.1145 12.9998 22.6667 12.9998H25.3334C25.8857 12.9998 26.3334 12.5521 26.3334 11.9998C26.3334 11.4476 25.8857 10.9998 25.3334 10.9998H22.6667Z" fill="#D3D6E2"/>
</svg>
